<?xml version="1.0" encoding="utf-8"?>
<!-- Generator: Adobe Illustrator 21.0.2, SVG Export Plug-In . SVG Version: 6.00 Build 0)  -->
<svg version="1.1" id="Layer_1" xmlns="http://www.w3.org/2000/svg" xmlns:xlink="http://www.w3.org/1999/xlink" x="0px" y="0px"
	 viewBox="0 0 350 65" style="enable-background:new 0 0 350 65;" xml:space="preserve">
<g>
	<path d="M205.8,23c-0.7-0.1-2-0.2-4-0.2H199v7.9h3.1c2.2,0,3.7-0.1,4.4-0.4s1.3-0.7,1.8-1.4c0.4-0.6,0.6-1.3,0.6-2.2
		c0-1-0.3-1.8-0.9-2.5C207.4,23.6,206.7,23.2,205.8,23z"/>
	<path d="M0,0v65h350V0H0z M154.3,22.8h-13.4v6.6h11.6v4.7h-11.6v11.8h-5.6V18.2h19V22.8z M178.7,45.9h-19.5V18.4h5.6v22.9h13.9
		V45.9z M188.1,45.9h-5.6V18.2h5.6V45.9z M213.8,31c-0.6,1.2-1.4,2.1-2.4,2.7s-1.9,1.1-2.9,1.3c-1.3,0.3-3.3,0.4-5.8,0.4H199v10.5
		h-5.6V18.2h9c3.4,0,5.6,0.1,6.7,0.4c1.6,0.4,2.9,1.3,4,2.7c1.1,1.4,1.6,3.2,1.6,5.4C214.7,28.4,214.4,29.8,213.8,31z"/>
</g>
</svg>
